HIERARCHY
ROOT Hips
{
	OFFSET -3.958830 18.904000 13.208200
	CHANNELS 6 Xposition Yposition Zposition Zrotation Yrotation Xrotation 
	JOINT LHipJoint
	{
		OFFSET 0.000000 0.000000 0.000000
		CHANNELS 3 Zrotation Yrotation Xrotation
		JOINT LeftUpLeg
		{
			OFFSET 1.800000 -1.400000 0.085000
			CHANNELS 3 Zrotation Yrotation Xrotation
			JOINT LeftLeg
			{
				OFFSET 2.215000 -6.000000 0.000000
				CHANNELS 3 Zrotation Yrotation Xrotation
				JOINT LeftFoot
				{
					OFFSET 2.500000 -6.900000 0.000000
					CHANNELS 3 Zrotation Yrotation Xrotation
					JOINT LeftToeBase
					{
						OFFSET 0.200000 -0.500000 1.950000
						CHANNELS 3 Zrotation Yrotation Xrotation
						End Site
						{
							OFFSET 0.000000 0.000000 0.000000
						}
					}
				}
			}
		}
	}
	JOINT RHipJoint
	{
		OFFSET 0.000000 0.000000 0.000000
		CHANNELS 3 Zrotation Yrotation Xrotation
		JOINT RightUpLeg
		{
			OFFSET -1.800000 -1.400000 0.085000
			CHANNELS 3 Zrotation Yrotation Xrotation
			JOINT RightLeg
			{
				OFFSET -2.215000 -6.000000 0.000000
				CHANNELS 3 Zrotation Yrotation Xrotation
				JOINT RightFoot
				{
					OFFSET -2.500000 -6.900000 0.000000
					CHANNELS 3 Zrotation Yrotation Xrotation
					JOINT RightToeBase
					{
						OFFSET -0.200000 -0.500000 1.950000
						CHANNELS 3 Zrotation Yrotation Xrotation
						End Site
						{
							OFFSET 0.000000 0.000000 0.000000
						}
					}
				}
			}
		}
	}
	JOINT LowerBack
	{
		OFFSET 0.000000 0.000000 0.000000
		CHANNELS 3 Zrotation Yrotation Xrotation
		JOINT Spine
		{
			OFFSET -0.087000 1.940000 -0.288900
			CHANNELS 3 Zrotation Yrotation Xrotation
			JOINT Spine1
			{
				OFFSET 0.000000 1.950000 0.060000
				CHANNELS 3 Zrotation Yrotation Xrotation
				JOINT Neck
				{
					OFFSET 0.000000 0.000000 0.000000
					CHANNELS 3 Zrotation Yrotation Xrotation
					JOINT Neck1
					{
						OFFSET 0.000000 1.600000 0.340000
						CHANNELS 3 Zrotation Yrotation Xrotation
						JOINT Head
						{
							OFFSET 0.000000 1.667000 -0.240000
							CHANNELS 3 Zrotation Yrotation Xrotation
							End Site
							{
								OFFSET 0.000000 0.000000 0.000000
							}
						}
					}
				}
				JOINT LeftShoulder
				{
					OFFSET 0.000000 0.000000 0.000000
					CHANNELS 3 Zrotation Yrotation Xrotation
					JOINT LeftArm
					{
						OFFSET 2.700000 1.550000 -0.730000
						CHANNELS 3 Zrotation Yrotation Xrotation
						JOINT LeftForeArm
						{
							OFFSET 5.450000 0.000000 0.000000
							CHANNELS 3 Zrotation Yrotation Xrotation
							JOINT LeftHand
							{
								OFFSET 3.450000 0.000000 0.000000
								CHANNELS 3 Zrotation Yrotation Xrotation
								JOINT LeftHandIndex1
								{
									OFFSET 0.750000 0.000000 0.000000
									CHANNELS 3 Zrotation Yrotation Xrotation
									End Site
									{
										OFFSET 0.000000 0.000000 0.000000
									}
								}
							}
						}
					}
				}
				JOINT RightShoulder
				{
					OFFSET 0.000000 0.000000 0.000000
					CHANNELS 3 Zrotation Yrotation Xrotation
					JOINT RightArm
					{
						OFFSET -2.700000 1.550000 -0.730000
						CHANNELS 3 Zrotation Yrotation Xrotation
						JOINT RightForeArm
						{
							OFFSET -5.450000 0.000000 0.000000
							CHANNELS 3 Zrotation Yrotation Xrotation
							JOINT RightHand
							{
								OFFSET -3.450000 0.000000 0.000000
								CHANNELS 3 Zrotation Yrotation Xrotation
								JOINT RightHandIndex1
								{
									OFFSET -0.750000 0.000000 0.000000
									CHANNELS 3 Zrotation Yrotation Xrotation
									End Site
									{
										OFFSET 0.000000 0.000000 0.000000
									}
								}
							}
						}
					}
				}
			}
		}
	}
}
MOTION
Frames: 10
Frame Time: 0.016667
1.494070 15.902820 -8.762990 -1.403359 -45.370099 -21.741197 -15.531480 15.139354 3.215589 11.296338 -3.330028 12.317556 0.563979 20.684277 71.713183 2.773256 13.652833 0.243247 0.154770 -0.027110 0.341740 18.022092 -8.644449 2.944436 -2.159833 7.307141 -20.901692 8.733285 -13.657600 53.553472 -1.256325 -8.187883 1.517235 -0.189780 -0.399310 -0.002770 -1.207069 -8.016842 -8.753605 9.982983 -3.933915 31.974522 2.034148 1.514368 0.965629 3.131504 -3.538801 -20.671882 -22.906236 8.537933 59.100041 -5.247090 2.348310 8.031270 14.550339 -7.859070 6.555345 43.010141 17.978861 3.423222 11.080491 10.366100 -0.599824 -3.424442 2.356311 0.318620 -0.272000 0.275610 -0.062000 -18.288223 14.893363 16.407931 -5.526526 -28.782938 -4.175267 9.676996 -19.645222 -3.245555 3.520646 -0.269550 0.122190 -0.188740 -0.199780 -0.140360 
1.351080 16.001590 -8.690500 0.071918 -45.276309 -24.547860 -15.334539 14.844576 3.347486 10.525563 -3.507451 9.806778 1.856121 20.866775 76.345643 2.909394 14.170496 0.119076 0.121170 -0.065890 0.294800 18.120969 -9.392137 2.740892 -2.475263 5.621841 -17.091646 7.112858 -12.522905 51.565457 -1.142157 -7.795423 1.655031 -0.206380 -0.356510 -0.009960 -1.795854 -6.597592 -8.428379 10.247132 -4.563269 31.496547 -0.582185 0.075792 4.303617 3.091499 -4.331666 -21.081658 -22.830335 8.847123 58.839242 -3.920830 1.619550 9.472580 14.890643 -7.307367 7.906357 40.946417 24.118479 3.911124 10.158758 13.278319 -0.754408 -3.626207 2.190683 0.302070 -0.254670 0.240280 -0.058720 -19.255843 15.039231 16.579472 -10.295149 -28.436294 -3.624837 6.430926 -21.713308 -2.567635 3.576442 -0.172390 0.108960 -0.182790 -0.175640 -0.126340 
1.263080 16.104630 -8.693070 2.941671 -44.508108 -29.583113 -15.243806 14.537790 3.532422 8.709836 -3.569573 5.360935 3.760861 21.535188 83.647586 3.157946 15.016925 -0.089428 0.126400 -0.053850 0.331340 18.149021 -10.024515 2.477920 -3.673129 4.191736 -12.459184 5.287197 -11.167888 49.349609 -1.059382 -7.413118 1.780978 -0.209270 -0.393610 0.016430 -2.042822 -5.593868 -8.245194 7.104945 -4.819560 36.090719 -2.787042 -0.264139 4.720327 4.191112 -4.992946 -20.920949 -20.114895 8.014128 55.736271 -6.248400 3.946990 7.839000 15.529803 -5.026385 7.846751 39.479182 30.358265 4.297546 9.477502 15.081424 -0.810436 -3.836908 2.133538 0.281460 -0.243790 0.258600 -0.071750 -22.245504 14.391960 16.932434 -13.834523 -25.990205 -2.320079 10.586110 -18.407044 -3.897894 3.224919 -0.069535 0.131650 -0.224510 -0.195340 -0.139810 
1.170850 16.280080 -8.703730 6.343427 -43.279960 -34.401335 -15.033601 13.961759 3.798542 3.784587 -3.820782 -0.009471 6.517838 20.496688 90.181146 3.474441 15.594449 -0.168081 0.069570 -0.056720 0.228370 18.240491 -10.994592 2.388733 -4.263489 2.708314 -9.055098 1.363795 -9.063312 47.643819 -0.982413 -7.000638 1.975113 -0.270940 -0.327670 0.032350 -2.977012 -3.318309 -7.977788 6.229060 -5.720849 38.859963 -7.934362 -0.715682 4.475075 4.114118 -4.779375 -22.143149 -16.036124 7.001932 56.012994 -3.097160 3.417580 9.954150 16.042201 -5.536052 8.463313 38.483102 37.696776 6.119044 8.397266 10.249699 -0.604119 -3.865244 2.264723 0.213430 -0.217410 0.268720 -0.021260 -22.963361 15.475904 18.581300 -13.748389 -24.043710 -2.193041 10.041409 -18.668219 -3.642828 3.237195 0.292631 0.187400 -0.224380 -0.194540 -0.055910 
1.073930 16.479520 -8.700780 10.604020 -44.033220 -39.940892 -14.975136 13.324311 4.208265 5.007194 -5.440256 -7.906266 3.788056 25.199626 94.372066 3.685666 16.864387 -0.498553 0.087060 -0.076210 0.280100 18.246701 -11.471827 2.051328 -9.822868 0.456822 -2.262961 3.722611 -9.489936 38.868353 -0.823124 -6.350100 2.178589 -0.257660 -0.371780 0.032700 -3.309283 -2.101832 -7.920568 2.841607 -5.371525 40.315729 -9.696485 -0.510839 8.367628 5.228234 -6.795616 -22.528332 -18.774926 7.785170 54.381358 -4.984340 3.791290 8.970100 15.888501 -3.992543 8.470783 31.863885 40.621556 4.027009 9.127549 15.340037 -0.528641 -4.168234 2.037496 0.246110 -0.232750 0.260610 -0.060960 -24.539250 16.067934 19.897343 -14.250150 -22.235865 -0.974442 11.005100 -16.649987 -3.551345 3.022227 0.722552 0.167630 -0.246020 -0.187680 -0.102700 
0.958180 16.675920 -8.722000 15.999193 -43.792675 -45.624808 -14.963425 12.748298 4.518134 4.977494 -6.539762 -14.656831 4.306999 27.502811 99.637099 3.815885 17.946497 -0.731948 0.064360 -0.119900 0.277540 18.249776 -11.728018 1.874670 -14.594328 -0.367453 2.111242 4.096393 -9.351827 33.414752 -0.736615 -6.124676 2.272348 -0.229530 -0.300120 -0.002900 -3.640180 -0.863487 -7.920822 -2.855769 -3.319426 41.128160 -10.508463 1.180759 12.186175 4.633616 -7.230497 -21.637678 -18.220044 6.444046 52.878599 -3.772670 1.919070 6.894580 16.541681 -2.107689 7.811958 27.525552 40.605231 2.255103 4.988428 17.964458 -1.480003 -4.262249 1.758071 0.280460 -0.207780 0.205590 -0.081080 -24.067099 15.492151 19.815098 -15.376396 -19.918761 -0.005447 12.188243 -16.025261 -3.816570 2.694371 1.052908 0.080450 -0.152400 -0.139900 -0.128410 
0.895740 16.867120 -8.716440 18.152082 -43.853832 -49.243390 -15.049605 12.479763 4.699970 6.185044 -6.790792 -21.077979 3.782203 28.598388 100.137196 3.866103 18.275487 -0.802301 0.065970 -0.107180 0.266310 18.199542 -11.536176 1.861489 -16.842222 -0.709570 7.333234 4.534946 -9.072612 27.922530 -0.745968 -6.048301 2.326873 -0.215680 -0.286200 0.000880 -3.443200 -0.924522 -7.997868 -5.970982 -1.184621 43.128014 -8.836557 3.349066 13.971442 4.674017 -7.494310 -20.706026 -17.754760 4.794907 50.737375 -4.008820 0.429830 6.050820 17.878110 2.199043 7.723920 20.028429 43.190316 1.738891 1.284717 10.316021 -1.775034 -4.001097 1.794090 0.252520 -0.193930 0.195310 -0.067780 -25.499625 13.488499 20.000257 -16.171028 -19.404620 1.212213 10.263474 -12.291761 -2.946853 2.584838 1.036004 0.084430 -0.145260 -0.148020 -0.113060 
0.875060 17.045390 -8.710760 21.923128 -46.013473 -53.225017 -15.087942 12.065037 4.964348 8.887718 -5.900036 -27.668652 -0.444573 31.043331 95.117728 3.784834 18.299560 -0.829788 0.053610 -0.115580 0.234940 18.195067 -11.355526 1.971754 -18.490561 -0.758329 11.039310 4.340098 -8.281945 21.295386 -0.743345 -5.895458 2.406151 -0.204130 -0.238710 -0.008140 -3.534101 -0.486967 -8.090884 -7.067284 0.064895 44.670615 -9.215491 4.822546 14.606791 5.093836 -8.765392 -20.308774 -19.806946 3.878100 47.482091 -3.399280 -1.654570 4.741310 19.034381 6.140046 7.440045 11.334171 41.562926 -1.239110 -0.592198 9.319168 -1.992975 -3.976048 1.715845 0.232510 -0.178400 0.162360 -0.054840 -27.182157 12.707322 20.665992 -17.218869 -17.600966 2.143147 7.693678 -9.817927 -2.076198 2.619745 1.142818 0.065750 -0.109070 -0.135680 -0.093020 
0.772210 17.216800 -8.671730 24.939503 -46.987447 -53.994290 -15.191049 11.766682 5.158557 11.342373 -4.674026 -33.774490 -5.224319 30.740678 85.417322 3.342638 17.241388 -0.705695 0.058940 -0.112390 0.230600 18.184043 -10.963940 2.085037 -19.222295 -0.439530 12.858268 4.319502 -7.510238 15.144618 -0.741337 -5.771941 2.449106 -0.180430 -0.214350 -0.003880 -3.414192 -0.639094 -8.245621 -9.277073 0.787645 41.018221 -9.774549 4.652055 15.642508 5.115127 -8.751645 -19.826493 -21.305649 6.016376 48.263285 -3.708150 -0.621950 4.973780 17.796481 8.359530 6.515219 9.015748 42.902192 -1.720051 -0.890754 6.807646 -1.888922 -3.859067 1.988961 0.222730 -0.155430 0.135520 -0.062510 -26.128990 11.979100 18.900084 -20.572255 -14.031937 2.836678 -1.376043 -4.229223 -0.181405 2.963331 0.027636 0.051030 -0.101500 -0.115460 -0.099330 
0.652370 17.426530 -8.663860 25.913559 -46.208062 -52.539359 -15.308999 11.308451 5.419740 12.844360 -4.029639 -39.624715 -11.598343 29.135777 72.098916 2.759247 15.352183 -0.382902 0.150970 0.014310 0.293970 18.167837 -10.607994 2.302142 -19.159082 0.047721 14.411999 4.467840 -6.777064 9.122576 -0.839379 -5.726989 2.466700 -0.134980 -0.266510 0.007030 -3.411484 -0.350706 -8.397266 -8.439036 2.069368 36.418406 -11.710874 6.552748 17.825963 5.846257 -7.560043 -20.026210 -20.437856 7.071663 54.462376 -3.692760 -0.606350 4.883120 15.799474 6.394903 7.250693 6.355385 38.079108 -1.874263 1.034206 7.835918 -1.407809 -3.937117 2.020933 0.218140 -0.185560 0.199130 -0.040380 -25.671128 12.329399 16.186377 -23.064104 -11.584056 2.788501 -0.927614 -4.212016 -0.250443 2.831308 -0.060537 0.112920 -0.099750 -0.167200 -0.083100 
